<?xml version="1.0" encoding="iso-8859-1"?>
<!-- Generator: Adobe Illustrator 19.0.0, SVG Export Plug-In . SVG Version: 6.00 Build 0)  -->
<svg version="1.1" id="Capa_1" xmlns="http://www.w3.org/2000/svg" xmlns:xlink="http://www.w3.org/1999/xlink" x="0px" y="0px"
	 viewBox="0 0 470 470" style="enable-background:new 0 0 470 470;" xml:space="preserve">
<g>
	<path style="fill:#FFFFFF;" d="M25.09,289.907c-1.405,5.773-2.668,11.583-3.786,17.425l141.292,141.292
		c5.857-1.111,11.675-2.365,17.449-3.761L25.09,289.907z"/>
	<path style="fill:#FFFFFF;" d="M421.335,156.521l23.575,23.574c1.406-5.773,2.669-11.583,3.786-17.426L307.404,21.377
		c-5.857,1.111-11.675,2.365-17.45,3.761l110.168,110.169c2.929,2.93,2.929,7.678,0,10.607c3.52,3.521,7.085,7.086,10.605,10.606
		C413.658,153.592,418.407,153.593,421.335,156.521z"/>
	<path style="fill:#FF6E1D;" d="M388.621,81.379l10.605-10.605c-2.929-2.93-2.929-7.678,0-10.607L413.192,46.2
		c2.93-2.928,7.678-2.928,10.607,0l10.605-10.605c-2.929-2.93-2.929-7.678,0-10.607l4.386-4.386
		C417.875,16.881,396.587,15,375.325,15c-16.767,0-33.352,1.163-49.681,3.402L388.621,81.379z"/>
	<path style="fill:#FF6E1D;" d="M123.807,335.586l13.966-13.966c2.93-2.928,7.678-2.928,10.607,0l10.605-10.605
		c-2.929-2.93-2.929-7.678,0-10.607l1.768-1.768l-15.909-15.909c-2.929-2.93-2.929-7.678,0-10.607c2.93-2.928,7.678-2.928,10.607,0
		l15.909,15.909l31.819-31.819l-15.91-15.91c-2.929-2.93-2.929-7.678,0-10.607c2.93-2.928,7.678-2.928,10.607,0l15.91,15.91
		l31.819-31.819l-15.91-15.91c-2.929-2.93-2.929-7.678,0-10.607c2.93-2.928,7.678-2.928,10.607,0l15.91,15.91l31.819-31.819
		l-15.909-15.909c-2.929-2.93-2.929-7.678,0-10.607c2.93-2.928,7.678-2.928,10.607,0l15.909,15.909l1.768-1.768
		c2.93-2.928,7.678-2.928,10.607,0l10.605-10.605c-2.929-2.93-2.929-7.678,0-10.607l13.965-13.965c2.93-2.928,7.678-2.928,10.607,0
		L356.8,113.2l-83.58-83.581c-57.1,16.779-109.427,47.66-152.684,90.917c-43.402,43.401-74.198,95.946-90.947,152.654l83.61,83.61
		l10.607-10.607C120.878,343.264,120.878,338.516,123.807,335.586z M91.394,281.252c-2.931,2.931-7.679,2.931-10.608,0.001
		c-2.929-2.929-2.929-7.677,0-10.606c2.929-2.929,7.681-2.929,10.608-0.002c2.745,2.745,2.916,7.094,0.513,10.039
		c-0.05,0.061-0.108,0.117-0.16,0.177C91.632,280.993,91.519,281.126,91.394,281.252z M91.394,238.825
		c-2.931,2.931-7.679,2.931-10.608,0.002s-2.929-7.678,0-10.606c2.929-2.93,7.681-2.929,10.608-0.002
		C94.321,231.146,94.321,235.898,91.394,238.825z"/>
	<path style="fill:#FF6E1D;" d="M46.2,413.192l13.966-13.966c2.93-2.928,7.678-2.928,10.607,0l10.605-10.605l-63.082-63.082
		c-5.134,37.104-4.48,75.271,2.308,113.249l4.382-4.382c2.93-2.928,7.678-2.928,10.607,0L46.2,423.8
		C43.271,420.87,43.271,416.122,46.2,413.192z"/>
	<path style="fill:#F2484B;" d="M423.8,46.2c2.929,2.93,2.929,7.678,0,10.607l-13.966,13.966c-1.465,1.464-3.385,2.196-5.304,2.196
		s-3.839-0.732-5.304-2.196l-10.605,10.605l63.082,63.082c5.134-37.104,4.48-75.271-2.308-113.249l-4.382,4.382
		c-1.465,1.464-3.385,2.196-5.304,2.196s-3.839-0.732-5.304-2.196L423.8,46.2z"/>
	<path style="fill:#F2484B;" d="M81.379,388.621l-10.605,10.605c2.929,2.93,2.929,7.678,0,10.607L56.808,423.8
		c-1.465,1.464-3.385,2.196-5.304,2.196s-3.839-0.732-5.304-2.196l-10.605,10.605c2.929,2.93,2.929,7.678,0,10.607l-4.386,4.386
		C52.124,453.119,73.412,455,94.675,455c16.767,0,33.353-1.163,49.682-3.401L81.379,388.621z"/>
	<path style="fill:#F2484B;" d="M410.729,167.128c-2.93-2.93-2.93-7.678-0.001-10.606c-3.521-3.52-7.086-7.085-10.606-10.605
		c-1.465,1.463-3.384,2.195-5.303,2.195c-1.92,0-3.839-0.732-5.304-2.196L356.8,113.2l-10.608,10.608
		c2.929,2.93,2.929,7.678,0,10.607l-13.965,13.965c-1.465,1.464-3.385,2.196-5.304,2.196s-3.839-0.732-5.304-2.196l-10.605,10.605
		c2.929,2.93,2.929,7.678,0,10.607l-1.768,1.768l15.909,15.909c2.929,2.93,2.929,7.678,0,10.607
		c-1.465,1.464-3.385,2.196-5.304,2.196s-3.839-0.732-5.304-2.196l-15.909-15.909l-31.819,31.819l15.91,15.91
		c2.929,2.93,2.929,7.678,0,10.607c-1.465,1.464-3.385,2.196-5.304,2.196s-3.839-0.732-5.304-2.196l-15.91-15.91l-31.819,31.819
		l15.91,15.91c2.929,2.93,2.929,7.678,0,10.607c-1.465,1.464-3.385,2.196-5.304,2.196s-3.839-0.732-5.304-2.196l-15.91-15.91
		l-31.819,31.819l15.909,15.909c2.929,2.93,2.929,7.678,0,10.607c-1.465,1.464-3.385,2.196-5.304,2.196s-3.839-0.732-5.304-2.196
		l-15.909-15.909l-1.768,1.768c-1.465,1.464-3.385,2.196-5.304,2.196s-3.839-0.732-5.304-2.196L148.38,321.62
		c2.929,2.93,2.929,7.678,0,10.607l-13.966,13.966c-1.465,1.464-3.385,2.196-5.304,2.196c-1.919,0-3.839-0.732-5.304-2.196
		l-10.607,10.607l83.581,83.582c57.1-16.779,109.426-47.661,152.683-90.918c43.402-43.402,74.198-95.946,90.948-152.655
		L410.729,167.128z"/>
	<path style="fill:#FFFFFF;" d="M300.407,158.985l-1.768,1.768l-15.909-15.909c-2.93-2.928-7.678-2.928-10.607,0
		c-2.929,2.93-2.929,7.678,0,10.607l15.909,15.909l-31.819,31.819l-15.91-15.91c-2.93-2.928-7.678-2.928-10.607,0
		c-2.929,2.93-2.929,7.678,0,10.607l15.91,15.91l-31.819,31.819l-15.91-15.91c-2.93-2.928-7.678-2.928-10.607,0
		c-2.929,2.93-2.929,7.678,0,10.607l15.91,15.91l-31.819,31.819l-15.909-15.909c-2.93-2.928-7.678-2.928-10.607,0
		c-2.929,2.93-2.929,7.678,0,10.607l15.909,15.909l-1.768,1.768c-2.929,2.93-2.929,7.678,0,10.607
		c1.465,1.464,3.385,2.196,5.304,2.196s3.839-0.732,5.304-2.196l1.768-1.768l15.909,15.909c1.465,1.464,3.385,2.196,5.304,2.196
		s3.839-0.732,5.304-2.196c2.929-2.93,2.929-7.678,0-10.607l-15.909-15.909l31.819-31.819l15.91,15.91
		c1.465,1.464,3.385,2.196,5.304,2.196s3.839-0.732,5.304-2.196c2.929-2.93,2.929-7.678,0-10.607l-15.91-15.91l31.819-31.819
		l15.91,15.91c1.465,1.464,3.385,2.196,5.304,2.196s3.839-0.732,5.304-2.196c2.929-2.93,2.929-7.678,0-10.607l-15.91-15.91
		l31.819-31.819l15.909,15.909c1.465,1.464,3.385,2.196,5.304,2.196s3.839-0.732,5.304-2.196c2.929-2.93,2.929-7.678,0-10.607
		l-15.909-15.909l1.768-1.768c2.929-2.93,2.929-7.678,0-10.607C308.085,156.058,303.337,156.058,300.407,158.985z"/>
	<circle style="fill:#082947;" cx="86.089" cy="233.524" r="7.5"/>
	<path style="fill:#082947;" d="M91.392,270.647c-2.929-2.929-7.677-2.929-10.606,0c-2.929,2.93-2.929,7.678,0,10.607
		c2.929,2.929,7.678,2.929,10.606,0c0.127-0.127,0.24-0.26,0.355-0.392c0.052-0.06,0.11-0.116,0.16-0.177
		C94.309,277.738,94.138,273.393,91.392,270.647z"/>
	<path style="fill:#082947;" d="M455.941,196.666c3.247-11.542,5.926-23.231,8.047-35.017c0.04-0.182,0.071-0.365,0.097-0.548
		c8.636-48.397,7.78-98.407-2.694-146.559c-0.013-0.062-0.023-0.115-0.035-0.168c-0.008-0.037-0.023-0.071-0.032-0.107
		c-0.065-0.282-0.148-0.56-0.246-0.834c-0.018-0.051-0.034-0.102-0.053-0.152c-0.116-0.303-0.252-0.599-0.408-0.888
		c-0.022-0.04-0.047-0.078-0.069-0.117c-0.136-0.24-0.288-0.474-0.453-0.701c-0.044-0.061-0.087-0.122-0.133-0.181
		c-0.194-0.251-0.399-0.496-0.63-0.726c-0.23-0.229-0.474-0.435-0.724-0.628c-0.061-0.047-0.123-0.091-0.185-0.136
		c-0.224-0.163-0.454-0.312-0.691-0.447c-0.043-0.024-0.084-0.051-0.127-0.075c-0.286-0.155-0.58-0.29-0.88-0.405
		c-0.055-0.021-0.112-0.039-0.168-0.059c-0.267-0.095-0.537-0.175-0.811-0.24c-0.041-0.009-0.079-0.026-0.12-0.035
		C429.316,2.908,402.3,0,375.325,0c-48.745,0-96.262,9.246-141.232,27.481c-46.563,18.882-88.337,46.621-124.164,82.447
		c-45.269,45.27-78.361,101.56-95.7,162.787c-0.057,0.201-0.11,0.404-0.166,0.605c-3.251,11.557-5.93,23.246-8.051,35.03
		c-0.04,0.182-0.071,0.365-0.097,0.548c-8.636,48.397-7.78,98.407,2.694,146.559c0.013,0.062,0.024,0.115,0.035,0.168
		c0.008,0.037,0.023,0.071,0.032,0.107c0.065,0.282,0.148,0.56,0.246,0.834c0.018,0.051,0.034,0.102,0.053,0.152
		c0.116,0.303,0.252,0.599,0.409,0.888c0.022,0.04,0.047,0.078,0.069,0.117c0.136,0.24,0.288,0.474,0.453,0.701
		c0.044,0.061,0.087,0.122,0.133,0.181c0.194,0.251,0.399,0.496,0.63,0.726c0.23,0.229,0.474,0.435,0.724,0.628
		c0.061,0.047,0.123,0.091,0.185,0.136c0.224,0.163,0.454,0.313,0.692,0.447c0.043,0.024,0.083,0.051,0.126,0.074
		c0.287,0.156,0.581,0.291,0.882,0.406c0.053,0.021,0.108,0.038,0.162,0.057c0.27,0.097,0.543,0.177,0.82,0.242
		c0.039,0.009,0.075,0.025,0.114,0.034C40.682,467.092,67.698,470,94.675,470c48.748,0,96.265-9.246,141.232-27.481
		c46.563-18.881,88.337-46.621,124.164-82.447c45.269-45.27,78.361-101.56,95.7-162.787
		C455.829,197.083,455.881,196.879,455.941,196.666z M31.209,449.398l4.386-4.386c2.929-2.93,2.929-7.678,0-10.607
		c-2.93-2.928-7.678-2.928-10.607,0l-4.382,4.382c-6.788-37.978-7.442-76.144-2.308-113.249l126.06,126.06
		C128.028,453.837,111.442,455,94.675,455C73.412,455,52.124,453.119,31.209,449.398z M162.596,448.624L21.304,307.332
		c1.118-5.842,2.381-11.652,3.786-17.425l154.956,154.956C174.271,446.259,168.454,447.513,162.596,448.624z M196.781,440.382
		L29.589,273.19c16.749-56.708,47.545-109.253,90.947-152.654c43.257-43.258,95.584-74.139,152.684-90.917L356.8,113.2
		l32.715,32.715c1.465,1.464,3.384,2.196,5.304,2.196c1.919,0,3.838-0.732,5.303-2.195c2.93-2.931,2.93-7.679,0.001-10.608
		L289.955,25.138c5.775-1.396,11.593-2.65,17.45-3.761l141.292,141.292c-1.117,5.843-2.381,11.653-3.786,17.426l-23.575-23.574
		c-2.928-2.928-7.677-2.929-10.606,0.001c-2.929,2.929-2.929,7.677,0.001,10.606l29.682,29.681
		c-16.749,56.708-47.545,109.253-90.948,152.655C306.207,392.722,253.88,423.604,196.781,440.382z M438.791,20.602l-4.386,4.386
		c-2.929,2.93-2.929,7.678,0,10.607c1.465,1.464,3.385,2.196,5.304,2.196s3.839-0.732,5.304-2.196l4.382-4.382
		c6.788,37.978,7.442,76.144,2.308,113.249L325.644,18.402C341.973,16.163,358.558,15,375.325,15
		C396.587,15,417.875,16.881,438.791,20.602z"/>
	<path style="fill:#082947;" d="M137.772,321.62l-13.966,13.966c-2.929,2.93-2.929,7.678,0,10.607
		c1.465,1.464,3.385,2.196,5.304,2.196c1.919,0,3.839-0.732,5.304-2.196l13.966-13.966c2.929-2.93,2.929-7.678,0-10.607
		C145.45,318.692,140.702,318.692,137.772,321.62z"/>
	<path style="fill:#082947;" d="M60.166,399.227L46.2,413.192c-2.929,2.93-2.929,7.678,0,10.607
		c1.465,1.464,3.385,2.196,5.304,2.196s3.839-0.732,5.304-2.196l13.966-13.966c2.929-2.93,2.929-7.678,0-10.607
		C67.844,396.299,63.096,396.299,60.166,399.227z"/>
	<path style="fill:#082947;" d="M335.585,123.808l-13.965,13.965c-2.929,2.93-2.929,7.678,0,10.607
		c1.465,1.464,3.385,2.196,5.304,2.196s3.839-0.732,5.304-2.196l13.965-13.965c2.929-2.93,2.929-7.678,0-10.607
		C343.263,120.88,338.515,120.88,335.585,123.808z"/>
	<path style="fill:#082947;" d="M404.53,72.97c1.919,0,3.839-0.732,5.304-2.196L423.8,56.808c2.929-2.93,2.929-7.678,0-10.607
		c-2.93-2.928-7.678-2.928-10.607,0l-13.966,13.966c-2.929,2.93-2.929,7.678,0,10.607C400.691,72.237,402.611,72.97,404.53,72.97z"
		/>
</g>
<g>
</g>
<g>
</g>
<g>
</g>
<g>
</g>
<g>
</g>
<g>
</g>
<g>
</g>
<g>
</g>
<g>
</g>
<g>
</g>
<g>
</g>
<g>
</g>
<g>
</g>
<g>
</g>
<g>
</g>
</svg>
