<?xml version="1.0" encoding="iso-8859-1"?>
<!-- Generator: Adobe Illustrator 19.0.0, SVG Export Plug-In . SVG Version: 6.00 Build 0)  -->
<svg version="1.1" id="Layer_1" xmlns="http://www.w3.org/2000/svg" xmlns:xlink="http://www.w3.org/1999/xlink" x="0px" y="0px"
	 viewBox="0 0 488 488" style="enable-background:new 0 0 488 488;" xml:space="preserve">
<path style="fill:#B8CBCD;" d="M436.672,428.748C436.672,451.248,349.3,472,244,472c-105.304,0-188.672-20.752-188.672-43.252
	c0-22.504,83.364-40.752,188.672-40.752C349.3,388,436.672,406.244,436.672,428.748z"/>
<path style="fill:#F7BB83;" d="M281.612,40.724c4.02-7.868,13.66-10.992,21.528-6.972c7.872,4.02,10.992,13.66,6.972,21.528
	L174.284,367.22C170.56,377.024,161.108,384,150,384H42c-14.36,0-26-11.64-26-26s11.64-26,26-26h104L281.612,40.724z"/>
<path style="fill:#6E4123;" d="M150,392H42c-18.748,0-34-15.252-34-34s15.252-34,34-34h98.9L274.36,37.348
	C278.612,29.016,286.804,24,295.876,24c3.764,0,7.536,0.908,10.904,2.632c5.708,2.912,9.94,7.88,11.916,13.98
	c1.948,6.012,1.472,12.42-1.34,18.072L181.62,370.412C176.78,383.184,164.016,392,150,392z M42,340c-9.924,0-18,8.076-18,18
	s8.076,18,18,18h108c7.412,0,14.168-4.672,16.808-11.62L302.78,52.088c0.064-0.152,0.136-0.3,0.208-0.444
	c0.972-1.9,1.144-4.068,0.488-6.104c-0.66-2.032-2.068-3.688-3.972-4.66c-3.884-1.988-8.816-0.328-10.764,3.484L153.252,335.376
	c-1.312,2.82-4.14,4.624-7.252,4.624H42z"/>
<polygon style="fill:#FFFFFF;" points="96.388,384 46.748,384 75.112,332 124.748,332 "/>
<path style="fill:#6E4123;" d="M96.388,392h-49.64c-2.824,0-5.436-1.488-6.88-3.916c-1.44-2.424-1.496-5.432-0.144-7.916l28.364-52
	c1.404-2.572,4.096-4.168,7.024-4.168h49.636c2.824,0,5.436,1.488,6.88,3.916c1.44,2.424,1.496,5.432,0.144,7.916l-28.364,52
	C102.008,390.404,99.316,392,96.388,392z M60.228,376H91.64l19.636-36H79.864L60.228,376z"/>
<path style="fill:#F7BB83;" d="M342,332h104c14.36,0,26,11.64,26,26s-11.64,26-26,26H338c-11.108,0-20.564-6.976-24.284-16.78
	L177.888,55.28c-4.02-7.868-0.9-17.508,6.972-21.528c7.868-4.02,17.508-0.9,21.528,6.972L342,332z"/>
<path style="fill:#6E4123;" d="M446,392H338c-14.016,0-26.78-8.816-31.764-21.94L170.64,58.68
	c-2.808-5.652-3.284-12.056-1.336-18.072c1.976-6.1,6.208-11.064,11.916-13.98c3.368-1.72,7.14-2.628,10.904-2.628
	c9.068,0,17.264,5.012,21.388,13.088L347.1,324.004H446c18.748,0,34,15.252,34,34S464.748,392,446,392z M192.124,40
	c-1.264,0-2.484,0.296-3.628,0.88c-1.904,0.972-3.312,2.628-3.972,4.66c-0.656,2.032-0.484,4.2,0.488,6.104
	c0.076,0.148,0.144,0.296,0.208,0.444l135.828,311.936C323.832,371.328,330.584,376,338,376h108c9.924,0,18-8.076,18-18
	s-8.076-18-18-18H342c-3.112,0-5.94-1.804-7.252-4.624L199.132,44.1C197.884,41.672,195.152,40,192.124,40z"/>
<polygon style="fill:#FFFFFF;" points="395.112,384 444.748,384 416.388,332 366.748,332 "/>
<path style="fill:#6E4123;" d="M444.748,392h-49.636c-2.928,0-5.62-1.596-7.024-4.168l-28.364-52
	c-1.352-2.48-1.296-5.488,0.144-7.916c1.44-2.428,4.056-3.916,6.88-3.916h49.636c2.928,0,5.62,1.596,7.024,4.168l28.364,52
	c1.352,2.48,1.296,5.488-0.144,7.916S447.576,392,444.748,392z M399.864,376h31.412l-19.636-36h-31.412L399.864,376z"/>
<path style="fill:#B9E3ED;" d="M192,438c0,9.94,28.592,18,54,18s54-8.06,54-18v-32c0-9.94-28.592-18-54-18c-25.408,0-54,8.06-54,18
	L192,438L192,438z"/>
<g>
	<path style="fill:#324654;" d="M246,468c-18.356,0-66-5.392-66-30v-32c0-24.608,47.644-30,66-30s66,5.392,66,30v32
		C312,462.608,264.356,468,246,468z M204,435.408c4.912,3.348,21.604,8.592,42,8.592c20.396,0,37.084-5.248,42-8.592v-26.812
		c-4.916-3.348-21.604-8.592-42-8.592s-37.088,5.248-42,8.592L204,435.408L204,435.408z"/>
	<path style="fill:#324654;" d="M246,432c-23.972,0-62-7.06-62-26c0-4.416,3.58-8,8-8c4.16,0,7.576,3.172,7.964,7.232
		C202.968,409.084,222.388,416,246,416s43.032-6.916,46.036-10.768c0.388-4.06,3.804-7.232,7.964-7.232c4.416,0,8,3.584,8,8
		C308,424.94,269.972,432,246,432z"/>
</g>
<path style="fill:#6E4123;" d="M295.876,32c2.448,0,4.932,0.564,7.264,1.756c7.872,4.02,10.992,13.66,6.972,21.528l-46.852,107.6
	L342,332h104c14.36,0,26,11.64,26,26s-11.64,26-26,26H338c-11.108,0-20.564-6.976-24.284-16.78L244,207.112L174.284,367.22
	C170.56,377.024,161.108,384,150,384H42c-14.36,0-26-11.64-26-26s11.64-26,26-26h104l78.74-169.12l-46.852-107.6
	c-4.02-7.868-0.9-17.508,6.972-21.528c2.332-1.192,4.816-1.756,7.264-1.756c5.82,0,11.432,3.184,14.26,8.724L244,121.508
	l37.612-80.788C284.444,35.184,290.056,32,295.876,32 M295.876,16L295.876,16c-12.088,0-23.016,6.684-28.512,17.444
	c-0.088,0.172-0.172,0.348-0.256,0.524L244,83.604l-23.108-49.636c-0.084-0.176-0.168-0.352-0.256-0.524
	C215.14,22.684,204.216,16,192.128,16c-5.024,0-10.052,1.212-14.544,3.508c-7.612,3.888-13.252,10.508-15.888,18.64
	c-2.576,7.948-1.972,16.412,1.688,23.9l43.812,100.616L135.8,316H42c-23.16,0-42,18.84-42,42s18.84,42,42,42h108
	c17.176,0,32.828-10.712,39.088-26.704L244,247.192l54.908,126.104C305.172,389.288,320.824,400,338,400h108c23.16,0,42-18.84,42-42
	s-18.84-42-42-42h-93.8l-71.392-153.34L324.62,62.044c3.66-7.488,4.264-15.952,1.688-23.904c-2.632-8.132-8.276-14.752-15.888-18.64
	C305.932,17.212,300.904,16,295.876,16L295.876,16z"/>
<g>
</g>
<g>
</g>
<g>
</g>
<g>
</g>
<g>
</g>
<g>
</g>
<g>
</g>
<g>
</g>
<g>
</g>
<g>
</g>
<g>
</g>
<g>
</g>
<g>
</g>
<g>
</g>
<g>
</g>
</svg>
